<?xml version="1.0" standalone="no"?>
<!DOCTYPE svg PUBLIC "-//W3C//DTD SVG 20010904//EN"
 "http://www.w3.org/TR/2001/REC-SVG-20010904/DTD/svg10.dtd">
<svg version="1.0" xmlns="http://www.w3.org/2000/svg"
 width="1024.000000pt" height="683.000000pt" viewBox="0 0 1024.000000 683.000000"
 preserveAspectRatio="xMidYMid meet">

<g transform="translate(0.000000,683.000000) scale(0.100000,-0.100000)"
fill="#000000" stroke="none">
<path d="M965 4928 c-219 -57 -393 -243 -441 -471 -24 -117 -24 -117 50 -117
l63 0 6 66 c7 93 61 200 143 282 34 34 69 62 78 62 9 0 16 4 16 9 0 13 102 49
174 62 142 24 311 -32 416 -140 77 -78 128 -182 137 -273 l6 -68 63 0 c38 0
64 4 64 11 0 5 -5 41 -11 80 -55 358 -411 589 -764 497z"/>
<path d="M1595 4872 c143 -135 216 -281 241 -479 l6 -53 59 0 59 0 0 38 c0 50
-34 171 -67 235 -56 112 -158 214 -270 271 -70 35 -75 33 -28 -12z"/>
<path d="M940 4679 c-106 -58 -189 -177 -198 -286 l-4 -53 61 0 61 0 0 38 c0
70 55 213 103 264 54 60 60 68 46 68 -8 0 -39 -14 -69 -31z"/>
<path d="M422 4065 c-51 -16 -76 -36 -108 -87 l-24 -38 0 -916 c0 -846 1 -919
17 -952 21 -44 45 -67 98 -92 38 -19 71 -20 805 -20 723 0 767 1 806 19 22 10
53 31 67 45 49 48 58 87 55 225 l-3 126 -650 5 c-580 4 -654 7 -675 21 -43 29
-66 53 -86 89 -18 33 -19 65 -22 493 -3 507 0 546 50 603 64 73 22 68 738 74
l645 5 3 120 c3 132 -8 178 -53 227 -62 67 -11 63 -855 65 -622 2 -773 -1
-808 -12z"/>
<path d="M2425 3678 c-2 -7 -8 -42 -14 -78 -6 -36 -23 -130 -37 -210 -14 -80
-30 -170 -34 -200 -5 -30 -27 -156 -50 -280 -23 -124 -45 -252 -50 -285 -5
-33 -16 -96 -25 -140 -8 -44 -15 -86 -15 -92 0 -10 27 -13 99 -13 113 0 102
-9 120 103 6 37 16 96 22 132 l11 65 78 0 78 0 11 -67 c7 -38 17 -104 24 -148
l13 -80 102 -3 c56 -1 102 0 102 3 0 11 -59 359 -80 475 -12 63 -26 144 -31
179 -5 35 -23 143 -40 240 -17 97 -35 201 -39 231 -5 30 -14 83 -21 118 l-11
62 -104 0 c-75 0 -106 -4 -109 -12z m130 -631 c22 -170 23 -163 -25 -159 -22
2 -40 7 -40 11 0 14 32 247 36 260 8 26 13 6 29 -112z"/>
<path d="M2960 3605 l0 -85 200 0 c110 0 200 -4 200 -9 0 -4 -14 -41 -31 -82
-17 -41 -46 -111 -65 -157 -19 -46 -42 -102 -53 -125 -22 -50 -65 -150 -96
-227 -13 -30 -52 -124 -89 -208 -65 -150 -66 -153 -66 -242 l0 -90 303 2 302
3 3 76 c3 75 2 77 -23 83 -15 4 -104 6 -198 5 -197 -1 -193 -3 -153 82 29 64
91 212 255 606 l122 292 -3 78 -3 78 -302 3 -303 2 0 -85z"/>
<path d="M3896 3682 c-3 -5 -15 -60 -26 -123 -35 -192 -70 -391 -80 -449 -5
-30 -21 -120 -35 -200 -15 -80 -30 -170 -35 -200 -5 -30 -20 -115 -33 -187
-13 -73 -22 -135 -19 -138 3 -3 47 -5 99 -5 66 0 95 4 98 13 3 6 15 73 28 147
l23 135 77 3 c57 2 78 -1 81 -10 2 -7 14 -75 27 -150 l22 -138 99 0 98 0 0 26
c0 15 -11 88 -25 163 -13 75 -36 206 -50 291 -43 257 -74 439 -96 560 -11 63
-25 144 -30 180 -6 40 -16 70 -26 78 -19 14 -189 17 -197 4z m124 -643 c11
-74 20 -137 20 -141 0 -5 -19 -8 -43 -8 l-43 0 7 68 c13 112 31 223 36 218 2
-2 13 -64 23 -137z"/>
<path d="M4435 3678 c-3 -7 -4 -301 -3 -653 l3 -640 103 -3 102 -3 0 247 0
247 84 -5 c93 -5 125 -19 156 -71 18 -29 20 -51 20 -224 l0 -193 100 0 100 0
0 198 c0 169 -3 203 -19 237 -19 43 -63 94 -96 113 -19 10 -18 12 17 49 20 21
47 61 60 88 21 46 23 63 23 220 0 162 -2 173 -27 225 -32 69 -81 120 -144 151
-46 23 -60 24 -262 27 -169 3 -213 1 -217 -10z m400 -182 c45 -29 50 -51 50
-211 0 -214 -16 -235 -171 -235 l-74 0 0 236 0 237 85 -5 c54 -4 94 -12 110
-22z"/>
<path d="M5705 3678 c-3 -7 -4 -301 -3 -653 l3 -640 100 0 100 0 0 240 0 240
80 0 c89 -1 127 -15 159 -58 19 -26 21 -46 26 -225 l5 -197 95 0 95 0 3 190
c3 219 -3 248 -70 314 -22 23 -44 41 -49 41 -18 0 -8 22 20 46 17 14 43 51 58
82 27 55 28 62 28 222 0 139 -3 173 -19 215 -23 59 -83 127 -146 164 -44 26
-48 26 -262 29 -175 3 -219 1 -223 -10z m401 -183 c44 -28 49 -51 49 -210 0
-131 -2 -154 -19 -182 -27 -44 -59 -54 -152 -51 l-79 3 -3 220 c-1 121 0 226
3 234 7 19 167 8 201 -14z"/>
<path d="M6715 3678 c-8 -29 -27 -125 -65 -343 -64 -369 -90 -517 -100 -565
-12 -56 -58 -326 -62 -360 -3 -25 -3 -25 95 -28 78 -2 98 0 103 12 3 8 16 75
28 148 l22 133 70 3 c38 1 74 -1 80 -5 6 -5 20 -68 32 -141 12 -73 24 -137 27
-143 4 -5 49 -9 101 -9 110 0 103 -16 74 155 -12 66 -25 149 -30 185 -5 36
-16 101 -25 145 -15 84 -37 209 -80 465 -14 85 -30 175 -35 200 -5 25 -12 68
-15 96 -6 50 -8 52 -43 58 -67 11 -172 7 -177 -6z m130 -656 c8 -68 14 -126
11 -130 -2 -4 -17 -7 -33 -6 -15 1 -34 3 -40 3 -8 1 -11 11 -8 29 19 119 25
164 31 212 9 74 19 48 39 -108z"/>
<path d="M7244 3677 c-2 -7 -3 -300 -2 -652 l3 -640 96 -3 c94 -3 97 -2 101
21 2 13 5 142 6 288 l1 264 192 3 c139 2 195 6 201 15 4 6 8 49 8 95 l0 82
-200 0 -200 0 0 175 0 175 195 0 194 0 6 33 c3 17 5 59 3 92 l-3 60 -298 2
c-222 1 -299 -1 -303 -10z"/>
<path d="M8147 3683 c-3 -5 -14 -62 -26 -128 -11 -66 -37 -210 -56 -320 -20
-110 -42 -236 -50 -280 -8 -44 -33 -180 -55 -303 -22 -122 -40 -234 -40 -247
l0 -26 98 3 97 3 23 125 c13 69 25 135 28 148 4 22 8 23 82 20 l77 -3 17 -100
c10 -55 21 -120 25 -145 l8 -45 89 -3 c49 -2 95 -1 101 2 9 3 7 32 -6 113 -20
123 -82 488 -104 608 -8 44 -23 134 -34 200 -65 385 -62 373 -94 379 -42 9
-175 7 -180 -1z m127 -646 c21 -157 23 -147 -24 -147 -31 0 -40 4 -40 18 0 47
34 262 40 255 5 -4 15 -61 24 -126z"/>
<path d="M8699 3683 l-27 -4 -7 -542 c-3 -298 -5 -589 -3 -647 l3 -105 300 0
300 0 0 90 0 90 -197 3 -198 2 0 554 c0 496 -2 554 -16 560 -17 6 -111 6 -155
-1z"/>
<path d="M1083 3252 c-60 -25 -112 -76 -140 -141 -21 -46 -24 -65 -19 -110 9
-73 35 -128 82 -172 75 -69 71 -69 589 -69 l465 0 0 255 0 255 -467 -1 c-416
0 -473 -2 -510 -17z"/>
<path d="M5280 2900 l0 -91 153 3 152 3 3 88 3 87 -156 0 -155 0 0 -90z"/>
</g>
</svg>
